<?xml version="1.0" encoding="UTF-8" standalone="no"?>
<svg
   xml:space="preserve"
   version="1.1"
   style="image-rendering:optimizeQuality;shape-rendering:geometricPrecision;text-rendering:geometricPrecision"
   viewBox="0 0 150 30.000001"
   x="0px"
   y="0px"
   fill-rule="evenodd"
   clip-rule="evenodd"
   id="svg5065"
   sodipodi:docname="logo-5-light.svg"
   width="150"
   height="30"
   inkscape:export-filename="..\logo-light.png"
   inkscape:export-xdpi="96"
   inkscape:export-ydpi="96"
   inkscape:version="1.2.2 (732a01da63, 2022-12-09)"
   xmlns:inkscape="http://www.inkscape.org/namespaces/inkscape"
   xmlns:sodipodi="http://sodipodi.sourceforge.net/DTD/sodipodi-0.dtd"
   xmlns="http://www.w3.org/2000/svg"
   xmlns:svg="http://www.w3.org/2000/svg"><sodipodi:namedview
     id="namedview5067"
     pagecolor="#ffffff"
     bordercolor="#000000"
     borderopacity="0.25"
     inkscape:showpageshadow="2"
     inkscape:pageopacity="0.0"
     inkscape:pagecheckerboard="0"
     inkscape:deskcolor="#d1d1d1"
     showgrid="false"
     inkscape:zoom="5.4894192"
     inkscape:cx="94.272268"
     inkscape:cy="64.487697"
     inkscape:window-width="2560"
     inkscape:window-height="1351"
     inkscape:window-x="-9"
     inkscape:window-y="-9"
     inkscape:window-maximized="1"
     inkscape:current-layer="g5059" /><defs
     id="defs5055"><style
       type="text/css"
       id="style5053">
   
    .fil0 {fill:black}
   
  </style></defs><g
     id="g5059"
     transform="matrix(0.04233082,0,0,0.03934417,-2.1142616,-1.6251094)"><text
       xml:space="preserve"
       style="font-weight:bold;font-size:718.774px;line-height:1;font-family:Ubuntu;-inkscape-font-specification:'Ubuntu Bold';letter-spacing:-4.90074px;fill:#000f18;stroke-width:29.636"
       x="962.70514"
       y="621.25696"
       id="text3216"
       transform="scale(0.96407732,1.0372612)"><tspan
         sodipodi:role="line"
         id="tspan3214"
         style="font-style:normal;font-variant:normal;font-weight:600;font-stretch:condensed;font-size:718.774px;font-family:'Myriad Pro';-inkscape-font-specification:'Myriad Pro Semi-Bold Condensed';fill:#000000;stroke-width:29.636"
         x="962.70514"
         y="621.25696">HS Explorer</tspan></text><g
       transform="matrix(7.9606713,0,0,8.3744681,4.886631,-7968.6439)"
       id="g11947"><g
         transform="translate(6.9621044,958.35431)"
         id="g11945"><path
           d="M 43.051183,0 C 42.838584,0 42.625986,0.03543307 42.448821,0.10629921 L 1.4173229,13.110236 C 1.1692914,13.181102 0.95669295,13.287401 0.77952759,13.429134 0.60236223,13.570866 0.42519687,13.748031 0.31889765,13.96063 0.17716536,14.137795 0.07086615,14.385827 0.03543307,14.598425 0,14.846457 0,15.094488 0.03543307,15.307086 v 57.720472 c 0,0.389764 0.10629922,0.814961 0.35433073,1.169292 0.28346457,0.35433 0.60236223,0.602362 1.0275591,0.708661 L 42.200789,87.838582 c 0.212599,0.07087 0.425197,0.141732 0.673229,0.177165 0.248031,0 0.496063,-0.03543 0.708661,-0.106299 0,0 0.03543,0 0.03543,0 L 84.64961,74.905511 c 0.425197,-0.106299 0.744094,-0.354331 0.992126,-0.708661 0.248031,-0.354331 0.425197,-0.779528 0.425197,-1.169292 V 15.023622 c 0,-0.03543 -0.03543,-0.07087 -0.03543,-0.07087 v -0.03543 c 0,-0.248032 -0.03543,-0.46063 -0.141733,-0.673229 -0.07087,-0.212598 -0.212598,-0.425197 -0.35433,-0.602362 -0.141733,-0.177165 -0.318898,-0.283464 -0.531496,-0.425197 -0.212599,-0.106299 -0.425197,-0.177165 -0.673229,-0.212598 L 43.618112,0.10629921 C 43.440947,0.03543307 43.263781,0 43.051183,0 Z M 43.01575,4.1102362 77.421263,15.023622 43.01575,25.901575 8.6102366,15.023622 Z M 82.062996,17.716535 V 71.539369 L 45.035435,83.267716 V 29.480315 Z"
           fill="#000000"
           fill-opacity="1"
           fill-rule="evenodd"
           stroke="none"
           id="path11941" /><path
           d="m 43.051183,9.2125983 c -0.212599,0 -0.425197,0 -0.637795,0.070866 L 30.437009,13.145669 c -0.248031,0.07087 -0.496063,0.212599 -0.708661,0.389764 -0.177166,0.141732 -0.354331,0.354331 -0.496063,0.602362 -0.1063,0.248032 -0.177166,0.496063 -0.212599,0.744095 0,0.283464 0,0.531496 0.106299,0.779527 0.07087,0.248032 0.212599,0.496063 0.389764,0.708662 0.141733,0.177165 0.354331,0.35433 0.602362,0.496063 0.248032,0.106299 0.496063,0.177165 0.779528,0.177165 0.248032,0.03543 0.531496,0 0.779528,-0.07087 l 11.374016,-3.68504 5.385827,1.736221 -5.988189,1.913386 c -0.283465,0.07087 -0.496063,0.212598 -0.708662,0.389763 -0.212598,0.177166 -0.354331,0.354331 -0.496063,0.602363 -0.106299,0.248031 -0.177165,0.496063 -0.212598,0.744094 0,0.283465 0,0.531496 0.106299,0.779528 0.07087,0.248031 0.212598,0.496063 0.354331,0.708661 0.177165,0.177165 0.389763,0.354331 0.637795,0.46063 0.212598,0.141732 0.496063,0.212598 0.744095,0.212598 0.248031,0.03543 0.531496,0 0.779527,-0.07087 l 11.976379,-3.862204 c 0.425196,-0.1063 0.779527,-0.389764 1.027559,-0.708662 0.248031,-0.35433 0.35433,-0.779527 0.35433,-1.204724 0,-0.425197 -0.106299,-0.814961 -0.35433,-1.169292 -0.248032,-0.35433 -0.637796,-0.602362 -1.027559,-0.708661 L 43.653545,9.2834645 c -0.212598,-0.035433 -0.389764,-0.070866 -0.602362,-0.070866 z"
           fill="#000000"
           fill-opacity="1"
           fill-rule="evenodd"
           stroke="none"
           id="path11943" /></g></g><path
       style="fill:#ffffff;stroke-width:0.220324"
       d="M 39.075172,13.844816 V 4.0987943 h 1.457349 1.457349 v 4.0987943 4.0987944 h 2.459277 2.459276 V 8.1975886 4.0987943 h 1.457349 1.45735 v 9.7460217 9.746022 H 48.36907 46.915017 l -0.04884,-4.326505 -0.04884,-4.326505 -2.413734,-0.05083 -2.413735,-0.05083 v 4.377334 4.377335 H 40.532519 39.07517 Z"
       id="path863"
       transform="matrix(23.62345,0,0,25.416726,49.946153,41.304961)" /><path
       style="fill:#ffffff;stroke-width:0.220324"
       d="m 53.592033,23.523144 c -1.25202,-0.35137 -1.301994,-0.437388 -1.045094,-1.798903 l 0.219728,-1.164517 0.941962,0.325514 c 1.26823,0.438263 2.863647,0.4332 3.736029,-0.01186 0.980292,-0.500108 1.372335,-1.3253 1.2742,-2.682002 -0.103245,-1.427351 -0.46257,-1.910262 -2.694212,-3.620857 -2.687323,-2.059882 -3.601199,-3.616766 -3.423375,-5.832082 0.174086,-2.1687443 1.588562,-3.9350205 3.638855,-4.5438924 1.186484,-0.3523477 2.730311,-0.3549343 3.903482,-0.00654 L 61.057452,4.459391 60.787054,5.7187616 60.516657,6.9781324 59.792286,6.7225595 c -1.131025,-0.399049 -2.516895,-0.3308101 -3.244873,0.1597742 -0.774655,0.52204 -1.070957,1.100789 -1.074378,2.098518 -0.0046,1.3309103 0.486517,1.9657123 2.739131,3.5407763 2.314289,1.618188 3.275234,3.075708 3.412401,5.175784 0.162661,2.4904 -0.908576,4.43925 -3.00356,5.46423 -0.832127,0.407121 -1.321966,0.512068 -2.589425,0.55478 -0.923551,0.03112 -1.921759,-0.04796 -2.439549,-0.193278 z"
       id="path865"
       transform="matrix(23.62345,0,0,25.416726,49.946153,41.304961)" /><path
       style="fill:#ffffff;stroke-width:0.220324"
       d="M 68.586491,13.844816 V 4.0987943 h 4.00771 4.00771 V 5.3739747 6.6491552 H 74.05155 71.501189 v 2.7325295 2.7325293 h 2.368192 2.368193 v 1.275181 1.27518 h -2.368193 -2.368192 v 3.187951 3.187951 h 2.73253 2.732529 v 1.275181 1.27518 h -4.189879 -4.189878 z"
       id="path867"
       transform="matrix(23.62345,0,0,25.416726,49.946153,41.304961)" /><path
       style="fill:#ffffff;stroke-width:0.220324"
       d="m 78.05926,23.520144 c 0,-0.03888 0.696795,-1.569395 1.548433,-3.401139 0.851639,-1.831745 1.548434,-3.406295 1.548434,-3.499001 0,-0.09271 -0.50351,-1.287892 -1.118911,-2.655969 -0.6154,-1.368076 -1.311162,-2.917784 -1.546136,-3.443796 L 78.063854,9.5638533 h 1.595883 1.595883 l 0.906638,2.5478427 c 0.498652,1.401313 0.958158,2.548975 1.021126,2.55036 0.06297,0.0014 0.405836,-0.837734 0.761929,-1.864709 0.356094,-1.026976 0.777036,-2.174638 0.935428,-2.550361 l 0.287985,-0.6831327 h 1.459583 1.459582 l -0.257454,0.5009637 c -0.1416,0.27553 -0.879639,1.833769 -1.640086,3.462752 l -1.382631,2.961789 1.473539,3.231945 c 0.810446,1.77757 1.549264,3.375403 1.641817,3.55074 0.154246,0.292213 0.03484,0.31874 -1.432107,0.318137 l -1.600385,-6.58e-4 -0.589337,-1.502233 c -0.324135,-0.826228 -0.762086,-2.014737 -0.973225,-2.641131 -0.394292,-1.169761 -0.589686,-1.296154 -0.787197,-0.509207 -0.06216,0.247653 -0.44866,1.39609 -0.858895,2.552082 l -0.745882,2.101805 h -1.438394 c -0.791117,0 -1.438394,-0.03181 -1.438394,-0.07069 z"
       id="path869"
       transform="matrix(23.62345,0,0,25.416726,49.946153,41.304961)" /><path
       style="fill:#ffffff;stroke-width:0.220324"
       d="M 89.718053,19.40096 V 9.5638533 h 1.27518 1.27518 v 0.7179237 c 0,0.932618 0.20996,1.037727 0.713211,0.357044 1.182847,-1.5998863 3.581973,-1.711944 4.96926,-0.232103 1.905483,2.03261 2.382996,7.439701 0.941124,10.656733 -1.196738,2.6701 -3.91526,3.611081 -5.487492,1.899426 -0.326975,-0.355971 -0.634385,-0.647219 -0.683133,-0.647219 -0.04875,0 -0.08863,1.557542 -0.08863,3.461204 v 3.461204 h -1.457349 -1.457349 z m 5.973652,1.588788 c 0.710729,-0.756535 0.988703,-1.889909 1.01518,-4.139149 0.029,-2.464031 -0.253254,-3.779157 -0.977501,-4.554466 -0.852637,-0.912751 -2.011949,-0.651627 -2.678717,0.603356 -0.232623,0.43784 -0.327006,1.190022 -0.383064,3.052807 -0.120218,3.994815 0.39537,5.452519 1.92855,5.452519 0.498827,0 0.819894,-0.121642 1.095552,-0.415067 z"
       id="path871"
       transform="matrix(23.62345,0,0,25.416726,49.946153,41.304961)" /><path
       style="fill:#ffffff;stroke-width:0.220324"
       d="M 102.10552,13.571563 V 3.5522884 h 1.45735 1.45735 V 13.571563 23.590838 h -1.45735 -1.45735 z"
       id="path873"
       transform="matrix(23.62345,0,0,25.416726,49.946153,41.304961)" /><path
       style="fill:#ffffff;stroke-width:0.220324"
       d="m 111.63775,23.755225 c -2.24729,-0.415692 -3.64148,-2.290746 -4.08418,-5.492819 -0.53285,-3.85415 0.80604,-7.4193 3.20496,-8.534099 0.96106,-0.4466135 2.67381,-0.4480335 3.65354,-0.00303 2.50171,1.13631 3.70638,5.291676 2.77865,9.584597 -0.39485,1.827109 -1.36015,3.267001 -2.6514,3.954973 -1.01903,0.54293 -1.8543,0.684095 -2.90157,0.490378 z m 1.90366,-2.580305 c 0.59584,-0.63424 0.95158,-2.32991 0.95158,-4.535797 0,-3.375058 -0.57696,-4.928612 -1.87053,-5.036716 -1.46209,-0.122189 -2.13718,1.449295 -2.13718,4.974939 0,2.381811 0.26791,3.695485 0.92368,4.529162 0.50075,0.636605 1.56654,0.670797 2.13245,0.06841 z"
       id="path875"
       transform="matrix(23.62345,0,0,25.416726,49.946153,41.304961)" /><path
       style="fill:#ffffff;stroke-width:0.220324"
       d="M 119.77588,16.577346 V 9.5638533 h 1.27518 1.27518 v 0.9715657 c 0,0.534362 0.0525,1.024085 0.11671,1.088274 0.0642,0.06419 0.34941,-0.250226 0.63382,-0.6987 0.62973,-0.9929785 1.48056,-1.541719 2.39188,-1.5426274 l 0.68313,-6.809e-4 v 1.4573493 1.457349 h -0.65503 c -1.42095,0 -2.38604,1.11402 -2.63442,3.040951 -0.0879,0.682006 -0.16252,2.818048 -0.16579,4.746758 l -0.006,3.506746 h -1.45735 -1.45735 z"
       id="path877"
       transform="matrix(23.62345,0,0,25.416726,49.946153,41.304961)" /><path
       style="fill:#ffffff;stroke-width:0.220324"
       d="m 130.35142,23.469898 c -0.44555,-0.163706 -1.19198,-0.679595 -1.65896,-1.146575 -1.19328,-1.193275 -1.65607,-2.485841 -1.76381,-4.926218 -0.13381,-3.031262 0.56794,-5.321452 2.07655,-6.776887 0.90548,-0.8735628 1.80969,-1.2385333 3.06847,-1.2385333 2.48254,0 3.98514,1.8936663 4.37247,5.5104393 0.072,0.67285 0.0769,1.511727 0.0108,1.864172 l -0.12022,0.640809 h -3.29608 -3.29608 l 0.099,1.091986 c 0.11055,1.219215 0.51812,2.051142 1.28524,2.623429 0.41072,0.306402 0.77649,0.383379 1.82169,0.383379 0.71928,0 1.56711,-0.06644 1.88406,-0.147637 0.6312,-0.161706 0.65758,-0.126867 0.88725,1.171746 0.10997,0.621777 0.0817,0.672692 -0.49125,0.884117 -1.01024,0.372803 -3.93617,0.412245 -4.87914,0.06577 z m 3.37517,-9.187604 c -0.19913,-1.501122 -0.62287,-2.3565 -1.3095,-2.64339 -0.68266,-0.285237 -1.24492,-0.145036 -1.77396,0.442345 -0.44959,0.499182 -0.83016,1.607693 -0.83998,2.4467 l -0.008,0.683132 h 2.02733 2.02732 z"
       id="path879"
       transform="matrix(23.62345,0,0,25.416726,49.946153,41.304961)" /><path
       style="fill:#ffffff;stroke-width:0.220324"
       d="m 141.71322,19.856381 c 1.5e-4,-2.104048 0.0267,-2.939845 0.0589,-1.857327 0.0323,1.082517 0.0321,2.804011 -2.7e-4,3.825541 -0.0324,1.02153 -0.0588,0.135834 -0.0587,-1.968214 z"
       id="path881"
       transform="matrix(23.62345,0,0,25.416726,49.946153,41.304961)" /><path
       style="fill:#ffffff;stroke-width:0.220324"
       d="m 138.71893,16.987225 c -0.001,-3.631987 -0.0529,-6.791863 -0.11454,-7.0219465 -0.11035,-0.4119699 -0.0916,-0.4175122 1.23212,-0.3643372 l 1.34418,0.053996 0.0546,1.0474697 c 0.0549,1.053366 0.27679,1.360828 0.49219,0.68215 0.31865,-1.003976 1.63136,-2.0028726 2.63209,-2.0028726 h 0.55555 v 1.4573496 1.457349 l -0.59205,6.74e-4 c -0.84054,9.65e-4 -1.69336,0.586191 -2.17867,1.495064 -0.39703,0.743534 -0.42012,0.999646 -0.47679,5.290037 l -0.0596,4.50868 h -1.44333 -1.44333 z"
       id="path883"
       transform="matrix(23.62345,0,0,25.416726,49.946153,41.304961)" /><path
       style="fill:#ffffff;stroke-width:0.220324"
       d="M 7.9243356,27.371976 C 3.8622689,26.11453 0.81501766,25.077449 0.68313238,24.907553 c -0.3308001,-0.42614 -0.3308001,-19.1489523 0,-19.5751597 C 0.90887546,5.0415428 14.487179,0.73079602 15.028912,0.77799349 c 0.818624,0.0713211 13.968096,4.29674701 14.163612,4.55130761 0.175463,0.2284523 0.22771,2.4748886 0.22771,9.7906959 0,7.316694 -0.05222,9.561833 -0.22771,9.78903 -0.132477,0.171517 -2.856149,1.103561 -6.512529,2.228594 -3.45665,1.063581 -6.612721,2.039905 -7.013492,2.169611 -0.706919,0.228785 -0.938081,0.171003 -7.7421674,-1.935256 z M 20.585056,26.621722 c 2.404626,-0.743932 5.089336,-1.571225 5.966022,-1.83843 l 1.593976,-0.485827 v -8.915239 c 0,-7.0113308 -0.04863,-8.9150052 -0.227711,-8.9141426 -0.125241,6.011e-4 -2.932915,0.8436233 -6.239275,1.8733779 l -6.011565,1.8722807 -0.04727,8.97848 c -0.04473,8.497394 -0.03009,8.973217 0.273253,8.880291 0.176286,-0.054 2.287941,-0.70686 4.692567,-1.450791 z M 20.733887,7.468914 c 3.079281,-0.9518311 5.637608,-1.730602 5.68517,-1.730602 0.04756,0 0.08648,-0.0665 0.08648,-0.1477776 0,-0.081278 -2.604612,-0.9517542 -5.788027,-1.9343922 L 14.929481,1.8695277 9.1953427,3.6397781 C 6.0415665,4.6134158 3.4043172,5.4633982 3.3347889,5.5286281 3.2127009,5.643168 14.285239,9.1586172 14.854343,9.1860019 c 0.154469,0.00743 2.800264,-0.7652568 5.879544,-1.7170879 z"
       id="path885"
       transform="matrix(23.62345,0,0,25.416726,49.946153,41.304961)" /><path
       style="fill:#ffffff;stroke-width:0.220324"
       d="m 14.482406,7.1045767 c -0.348602,-0.4200402 0.0517,-0.7643014 1.294061,-1.1128893 0.590772,-0.1657623 1.074132,-0.3531279 1.074132,-0.4163679 0,-0.06324 -0.430374,-0.2395708 -0.956386,-0.3918462 C 14.955629,4.9117623 14.902225,4.9177206 13.025057,5.5035842 10.83379,6.1874784 10.558042,6.2182637 10.396409,5.7970539 10.21049,5.3125585 10.608508,5.0832249 12.854131,4.3809401 l 2.106181,-0.6586764 2.083697,0.6522039 c 3.297985,1.0322796 3.309063,1.3371423 0.08549,2.3524033 C 14.762305,7.4724153 14.785,7.4691771 14.482408,7.1045767 Z"
       id="path887"
       transform="matrix(23.62345,0,0,25.416726,49.946153,41.304961)" /></g></svg>
