<?xml version="1.0" encoding="UTF-8" standalone="no"?>
<svg
   width="143"
   height="30"
   fill="none"
   version="1.1"
   id="svg1692"
   sodipodi:docname="logo-4.svg"
   inkscape:export-filename="..\logo.png"
   inkscape:export-xdpi="96"
   inkscape:export-ydpi="96"
   inkscape:version="1.2.2 (732a01da63, 2022-12-09)"
   xmlns:inkscape="http://www.inkscape.org/namespaces/inkscape"
   xmlns:sodipodi="http://sodipodi.sourceforge.net/DTD/sodipodi-0.dtd"
   xmlns="http://www.w3.org/2000/svg"
   xmlns:svg="http://www.w3.org/2000/svg">
  <defs
     id="defs1696" />
  <sodipodi:namedview
     id="namedview1694"
     pagecolor="#ffffff"
     bordercolor="#000000"
     borderopacity="0.25"
     inkscape:showpageshadow="2"
     inkscape:pageopacity="0.0"
     inkscape:pagecheckerboard="0"
     inkscape:deskcolor="#d1d1d1"
     showgrid="false"
     inkscape:zoom="9.1608392"
     inkscape:cx="75.811832"
     inkscape:cy="15.009542"
     inkscape:window-width="2560"
     inkscape:window-height="1351"
     inkscape:window-x="-9"
     inkscape:window-y="-9"
     inkscape:window-maximized="1"
     inkscape:current-layer="svg1692" />
  <mask
     id="a"
     fill="#fff">
    <path
       d="M15.6 0c3.2.9 6.2 3.1 7.4 5.9a16 16 0 0 1-.6 13.4 8.6 8.6 0 0 1-16-4.3 8.5 8.5 0 0 1 11.8-8s-1-.5-3.3-.9C8.1 5.3.1 10.4 1.9 22.3a15 15 0 0 0 28-7.4A15 15 0 0 0 15.6 0Z"
       id="path1683" />
  </mask>
  <path
     fill="#fff"
     d="M15.6 0c3.2.9 6.2 3.1 7.4 5.9a16 16 0 0 1-.6 13.4 8.6 8.6 0 0 1-16-4.3 8.5 8.5 0 0 1 11.8-8s-1-.5-3.3-.9C8.1 5.3.1 10.4 1.9 22.3a15 15 0 0 0 28-7.4A15 15 0 0 0 15.6 0Z"
     id="path1686"
     style="fill:#000000" />
  <path
     fill="#fff"
     d="m15.6 0 .5-17.9-5.3 35.1L15.6 0ZM23 5.9 39.5-1l-.1-.2v-.1L23 5.9Zm-.6 13.4 15.1 9.5.1-.1v-.1l-15.2-9.3ZM15 23.5l.2-17.9-.2 17.9ZM6.4 15h-17.8v.1H6.4Zm11.8-8-6.9 16.6 16-32-9.1 15.5Zm-3.3-.9 2.7-17.6h-.4L15 6Zm-13 16.2L-15.7 25l.5 3.2 1.5 2.8L2 22.3Zm13 7.6V12v18Zm15-15H12h18Zm-19 2.3c-.8-.2-1.4-.5-2-1a8.2 8.2 0 0 1-2.3-3.1L39.3-1.3a29.3 29.3 0 0 0-18.9-16l-9.6 34.5Zm-4.4-4.5-.2-.5v-.5c.1-.3.3-.9.8-1.6l30.6 18.5A33.9 33.9 0 0 0 39.5-1l-33 13.7Zm.7-2.8a9.6 9.6 0 0 1 8-4.3l-.4 35.8c9.6 0 17.9-4.9 22.7-12.6L7.2 9.8Zm8-4.3c4.8 0 9 4 9.1 9.3l-35.7.2c0 14.7 12 26.2 26.3 26.3L15 5.6Zm9.1 9.4c0 4.9-4 9.3-9.3 9.3v-35.8C0-11.5-11.4.7-11.4 15h35.7ZM15 24.3c-1 0-2.3-.1-3.7-.7l13.8-33c-4-1.7-7.6-2-10.1-2v35.7ZM18.2 7l9-15.4a16.4 16.4 0 0 0-1.7-1l-2.2-.8c-1.6-.6-3.5-1-5.7-1.4l-5.4 35.3-.6-.2a11.6 11.6 0 0 1-2.4-1.1H9L18 7Zm-1-18.7A29.5 29.5 0 0 0-7.6-3 32.1 32.1 0 0 0-15.7 25l35.3-5.5c-.1-.8 0-.7-.2 0A6 6 0 0 1 18 22a6.3 6.3 0 0 1-5.3 1.9l4.6-35.5ZM-13.7 31a32.8 32.8 0 0 0 28.8 16.8L15 12a3 3 0 0 1 2.6 1.5L-13.7 31Zm28.8 16.8c18 0 32.8-14.8 32.7-33l-35.8.1c0-1.6 1.3-2.9 3-2.9v35.8Zm32.7-33c0-17.3-14-32.2-31.7-32.7l-1 35.8c-1.1 0-1.9-.6-2.3-1a3 3 0 0 1-.8-2h35.8Z"
     mask="url(#a)"
     id="path1688"
     style="fill:#000000" />
  <path
     fill="#fff"
     stroke="#fff"
     stroke-width=".5"
     d="M14.8 1.5c2.8.8 5 2.6 6.2 5 .6 1.2.8 2 .9 3-2-2.5-5.3-3.7-8.7-3.6-3.5 0-6.8 1.5-9 4.4-2 2.6-3 6.5-2.2 11.6A15.4 15.4 0 0 1 .6 11.8v-.4l.1-.1V11a4.5 4.5 0 0 1 .2-.4v-.2a.5.5 0 0 0 0-.2c.6-1.7 1.6-3.4 3-5C5 4 6.9 2.5 9.6 1.7c1-.3 2.1-.4 3.2-.4a9 9 0 0 1 2 .2Z"
     id="path1690"
     style="fill:#000000" />
  <text
     xml:space="preserve"
     style="font-weight:bold;font-size:29.3333px;line-height:1;font-family:Ubuntu;-inkscape-font-specification:'Ubuntu Bold';letter-spacing:-0.2px;fill:#000f18;stroke-width:1.20945"
     x="34.999405"
     y="24.264887"
     id="text3216"><tspan
       sodipodi:role="line"
       id="tspan3214"
       style="font-style:normal;font-variant:normal;font-weight:600;font-stretch:condensed;font-size:29.3333px;font-family:'Myriad Pro';-inkscape-font-specification:'Myriad Pro Semi-Bold Condensed';fill:#000000;stroke-width:1.20945"
       x="34.999405"
       y="24.264887">HS Explorer</tspan></text>
</svg>
