<svg xmlns="http://www.w3.org/2000/svg" xmlns:xlink="http://www.w3.org/1999/xlink" xml:space="preserve" version="1.1" style="shape-rendering:geometricPrecision;text-rendering:geometricPrecision;image-rendering:optimizeQuality;" viewBox="0 0 846.66 1058.325" x="0px" y="0px" fill-rule="evenodd" clip-rule="evenodd"><defs><style type="text/css">
   
    .fil0 {fill:black}
   
  </style></defs><g><path class="fil0" d="M484.14 778.51c23.86,-12.31 232.46,-134.21 232.46,-134.21 0,0 49.27,-30.51 49.27,-89.01 0,-87.98 0,-175.95 0,-263.93 0,-58.5 -49.27,-89.01 -49.27,-89.01 0,0 -208.6,-121.9 -232.46,-134.21 -34.5,-17.81 -87.12,-17.81 -121.62,0 -23.86,12.31 -232.46,134.21 -232.46,134.21 0,0 -49.27,30.51 -49.27,89.01 0,87.98 0,175.95 0,263.93 0,58.5 49.27,89.01 49.27,89.01 0,0 208.6,121.9 232.46,134.21 34.5,17.81 87.12,17.81 121.62,0zm-40.93 -291.57l178.87 0 0 74.46 -178.87 0 0 -74.46zm-165.11 -224.42l153.96 160.81 -153.96 160.8 -53.52 -51.48 104.67 -109.32 -104.67 -109.33 53.52 -51.48z"/></g><text x="0" y="861.66" fill="#000000" font-size="5px" font-weight="bold" font-family="'Helvetica Neue', Helvetica, Arial-Unicode, Arial, Sans-serif">Created by zahrotul fuadah</text><text x="0" y="866.66" fill="#000000" font-size="5px" font-weight="bold" font-family="'Helvetica Neue', Helvetica, Arial-Unicode, Arial, Sans-serif">from the Noun Project</text></svg>