<?xml version="1.0" encoding="UTF-8" standalone="no"?>
<svg
   version="1.1"
   x="0px"
   y="0px"
   viewBox="0 0 100 125"
   id="svg11953"
   sodipodi:docname="noun-box-1276228.svg"
   inkscape:version="1.2.2 (732a01da63, 2022-12-09)"
   xmlns:inkscape="http://www.inkscape.org/namespaces/inkscape"
   xmlns:sodipodi="http://sodipodi.sourceforge.net/DTD/sodipodi-0.dtd"
   xmlns="http://www.w3.org/2000/svg"
   xmlns:svg="http://www.w3.org/2000/svg">
  <defs
     id="defs11957" />
  <sodipodi:namedview
     id="namedview11955"
     pagecolor="#ffffff"
     bordercolor="#000000"
     borderopacity="0.25"
     inkscape:showpageshadow="2"
     inkscape:pageopacity="0.0"
     inkscape:pagecheckerboard="0"
     inkscape:deskcolor="#d1d1d1"
     showgrid="false"
     inkscape:zoom="8.216"
     inkscape:cx="50.024343"
     inkscape:cy="62.5"
     inkscape:window-width="2560"
     inkscape:window-height="1351"
     inkscape:window-x="-9"
     inkscape:window-y="-9"
     inkscape:window-maximized="1"
     inkscape:current-layer="svg11953" />
  <g
     transform="matrix(0.33698174,0,0,0.3294865,4.6218755,-309.77267)"
     id="g11947">
    <g
       transform="translate(6.9621044,958.35431)"
       id="g11945">
      <path
         d="M 43.051183,0 C 42.838584,0 42.625986,0.03543307 42.448821,0.10629921 L 1.4173229,13.110236 C 1.1692914,13.181102 0.95669295,13.287401 0.77952759,13.429134 0.60236223,13.570866 0.42519687,13.748031 0.31889765,13.96063 0.17716536,14.137795 0.07086615,14.385827 0.03543307,14.598425 0,14.846457 0,15.094488 0.03543307,15.307086 v 57.720472 c 0,0.389764 0.10629922,0.814961 0.35433073,1.169292 0.28346457,0.35433 0.60236223,0.602362 1.0275591,0.708661 L 42.200789,87.838582 c 0.212599,0.07087 0.425197,0.141732 0.673229,0.177165 0.248031,0 0.496063,-0.03543 0.708661,-0.106299 0,0 0.03543,0 0.03543,0 L 84.64961,74.905511 c 0.425197,-0.106299 0.744094,-0.354331 0.992126,-0.708661 0.248031,-0.354331 0.425197,-0.779528 0.425197,-1.169292 V 15.023622 c 0,-0.03543 -0.03543,-0.07087 -0.03543,-0.07087 v -0.03543 c 0,-0.248032 -0.03543,-0.46063 -0.141733,-0.673229 -0.07087,-0.212598 -0.212598,-0.425197 -0.35433,-0.602362 -0.141733,-0.177165 -0.318898,-0.283464 -0.531496,-0.425197 -0.212599,-0.106299 -0.425197,-0.177165 -0.673229,-0.212598 L 43.618112,0.10629921 C 43.440947,0.03543307 43.263781,0 43.051183,0 Z M 43.01575,4.1102362 77.421263,15.023622 43.01575,25.901575 8.6102366,15.023622 Z M 82.062996,17.716535 V 71.539369 L 45.035435,83.267716 V 29.480315 Z"
         fill="#000000"
         fill-opacity="1"
         fill-rule="evenodd"
         stroke="none"
         id="path11941" />
      <path
         d="m 43.051183,9.2125983 c -0.212599,0 -0.425197,0 -0.637795,0.070866 L 30.437009,13.145669 c -0.248031,0.07087 -0.496063,0.212599 -0.708661,0.389764 -0.177166,0.141732 -0.354331,0.354331 -0.496063,0.602362 -0.1063,0.248032 -0.177166,0.496063 -0.212599,0.744095 0,0.283464 0,0.531496 0.106299,0.779527 0.07087,0.248032 0.212599,0.496063 0.389764,0.708662 0.141733,0.177165 0.354331,0.35433 0.602362,0.496063 0.248032,0.106299 0.496063,0.177165 0.779528,0.177165 0.248032,0.03543 0.531496,0 0.779528,-0.07087 l 11.374016,-3.68504 5.385827,1.736221 -5.988189,1.913386 c -0.283465,0.07087 -0.496063,0.212598 -0.708662,0.389763 -0.212598,0.177166 -0.354331,0.354331 -0.496063,0.602363 -0.106299,0.248031 -0.177165,0.496063 -0.212598,0.744094 0,0.283465 0,0.531496 0.106299,0.779528 0.07087,0.248031 0.212598,0.496063 0.354331,0.708661 0.177165,0.177165 0.389763,0.354331 0.637795,0.46063 0.212598,0.141732 0.496063,0.212598 0.744095,0.212598 0.248031,0.03543 0.531496,0 0.779527,-0.07087 l 11.976379,-3.862204 c 0.425196,-0.1063 0.779527,-0.389764 1.027559,-0.708662 0.248031,-0.35433 0.35433,-0.779527 0.35433,-1.204724 0,-0.425197 -0.106299,-0.814961 -0.35433,-1.169292 -0.248032,-0.35433 -0.637796,-0.602362 -1.027559,-0.708661 L 43.653545,9.2834645 c -0.212598,-0.035433 -0.389764,-0.070866 -0.602362,-0.070866 z"
         fill="#000000"
         fill-opacity="1"
         fill-rule="evenodd"
         stroke="none"
         id="path11943" />
    </g>
  </g>
  <text
     x="0"
     y="115"
     fill="#000000"
     font-size="5px"
     font-weight="bold"
     font-family="'Helvetica Neue', Helvetica, Arial-Unicode, Arial, Sans-serif"
     id="text11949">Created by AliWijaya</text>
  <text
     x="0"
     y="120"
     fill="#000000"
     font-size="5px"
     font-weight="bold"
     font-family="'Helvetica Neue', Helvetica, Arial-Unicode, Arial, Sans-serif"
     id="text11951">from the Noun Project</text>
</svg>
