<svg xmlns="http://www.w3.org/2000/svg" xmlns:xlink="http://www.w3.org/1999/xlink" version="1.1" x="0px" y="0px" viewBox="0 0 96 120" style="enable-background:new 0 0 96 96;" xml:space="preserve"><style type="text/css">
	.st0{fill-rule:evenodd;clip-rule:evenodd;}
</style><path class="st0" d="M89.685,34.447c-0.655,0.511-1.6,0.395-2.111-0.259c-0.511-0.655-0.395-1.6,0.259-2.111l0.329-0.257H76.83  c-0.834,0-1.51-0.676-1.51-1.51c0-0.834,0.676-1.51,1.51-1.51h11.332l-0.329-0.257c-0.655-0.511-0.771-1.457-0.259-2.111  c0.511-0.655,1.457-0.771,2.111-0.26l3.758,2.934c0.785,0.59,0.807,1.775,0.022,2.388L89.685,34.447L89.685,34.447z M74.386,36.485  l5.836,3.369L61.124,50.88v8.684l5.538,3.197v-8.684L85.76,43.052l5.836,3.369c0.6,0.346,0.944,0.941,0.944,1.634v19.873  c0,0.693-0.343,1.288-0.944,1.634l-17.21,9.936c-0.6,0.346-1.287,0.346-1.887,0l-17.21-9.936c-0.6-0.346-0.944-0.941-0.944-1.634  V48.055c0-0.693,0.343-1.288,0.944-1.634l17.21-9.936C73.099,36.139,73.785,36.139,74.386,36.485L74.386,36.485z M28.893,32.704  c0.694-3.555,3.434-4.124,5.353-5.323c1.535-0.959,4.334-1.25,6.443-1.817c1.725-0.464,1.699-2.436,1.921-3.989  c0.487-3.404-0.247-3.916-3.237-4.342c-4.979-0.709-3.31-4.166-10.009-2.756c-6.632,1.396-4.742,0.896-11.42-1.126  c-5.494,3.696-9.917,8.862-12.706,14.934c3.712,11.1,11.337,13.221,12.641,14.565c1.128,1.163,2.735,2.054,2.776,5.727  c0.132,11.802,5.495,3.655,7.901,17.145c2.277,12.767,6.909,8.908,7.84,1.386c0.799-6.458,7.151-7.74,7.734-15.424  c0.344-4.535-12.677-8.244-14.124-8.128c-5.955,0.474-5.059,1.493-8.383-3.836C17.453,33.036,28.051,37.013,28.893,32.704  L28.893,32.704z M38.084,7.221c-6.021,0-11.697,1.475-16.689,4.08c0.827,0.285,1.968,0.78,2.782,0.919  c0.958,0.163,3.617-0.498,4.563-0.697c2.9-0.611,5.593-0.733,8.075,1.116c1.18,0.879,1.43,1.384,2.982,1.605  c1.807,0.257,3.612,0.638,4.834,2.131c1.326,1.62,1.246,3.679,0.967,5.628c-0.143,1.001-0.195,1.905-0.509,2.89  c-0.564,1.773-1.783,3.093-3.617,3.587c-1.313,0.353-4.621,0.833-5.628,1.462c-0.94,0.587-2.087,1.023-2.958,1.658  c-0.621,0.452-0.883,0.927-1.031,1.683c-0.549,2.813-2.836,4.08-5.416,4.603c-0.471,0.095-1.397,0.203-2.197,0.332  c0.381,0.623,1.218,2.077,1.742,2.721c1.231-0.064,2.529-0.293,3.78-0.392c2.145-0.171,7.212,1.704,9.18,2.563  c3.49,1.522,8.534,4.33,8.194,8.804c-0.313,4.128-1.898,6.817-4.488,9.89c-1.472,1.746-2.965,3.299-3.26,5.677  c-0.419,3.388-1.894,8.727-5.824,9.507c-2.462,0.488-4.389-1.069-5.564-3.079c-1.284-2.198-1.977-5.169-2.42-7.654  c-0.517-2.898-0.99-5.517-3.526-7.237c-1.386-0.94-2.368-1.777-3.146-3.316c-1.057-2.093-1.25-4.782-1.276-7.088  c-0.024-2.163-0.53-2.236-1.856-3.588c-1.81-1.359-3.677-2.119-5.622-3.789c-2.856-2.452-4.984-5.444-6.523-8.793  c-1.089,3.442-1.677,7.105-1.677,10.907c0,19.953,16.175,36.127,36.127,36.127c6.969,0,13.477-1.974,18.996-5.392l-3.302-1.906  c-1.534-0.886-2.453-2.478-2.453-4.249V49.514c-4.317-1.114-7.604-5.917-6.064-10.3c0.412-1.172,1.043-2.176,1.702-3.215  c0.162-0.255,0.566-0.867,0.728-1.249c-0.539-1.654,0.387-3.354,1.491-4.564c0.635-0.696,1.424-1.297,2.294-1.646  c-1.9-2.745-1.39-8.589,1.081-10.848c1.373-1.255,3.155-2.069,4.889-2.704c0.671-0.246,1.348-0.467,2.025-0.695l0.059-0.02  C53.531,9.842,46.114,7.221,38.084,7.221L38.084,7.221z M50.575,33.847c1.554,3.346-7.377,7.199,0.695,12.491  c0.107,0.039,0.215,0.075,0.321,0.11c0.376-1.099,1.138-2.035,2.188-2.641l17.21-9.936c0.566-0.327,1.174-0.533,1.793-0.619  c-1.913-6.584-5.649-12.393-10.625-16.843c-0.817,0.733-5.32,1.463-7.562,3.512c-1.946,1.779-1.083,5.792-0.65,6.875  c0.436,0.854,8.019-0.208,8.953-0.171c4.372,0.171,2.355,5.019,1.082,5.368c-1.018,0.279-7.945,0.164-10.657-0.716  C52.14,30.893,50.33,33.321,50.575,33.847L50.575,33.847z M61.522,82.813l0.329-0.257c0.655-0.511,0.771-1.457,0.26-2.111  c-0.511-0.655-1.457-0.771-2.111-0.26l-3.758,2.934c-0.785,0.59-0.807,1.775-0.022,2.388L60,88.46  c0.655,0.511,1.6,0.395,2.111-0.259c0.511-0.655,0.395-1.6-0.26-2.111l-0.329-0.257h28.216c0.834,0,1.51-0.676,1.51-1.51  c0-0.834-0.676-1.51-1.51-1.51H61.522z"/><text x="0" y="111" fill="#000000" font-size="5px" font-weight="bold" font-family="'Helvetica Neue', Helvetica, Arial-Unicode, Arial, Sans-serif">Created by Eko Purnomo</text><text x="0" y="116" fill="#000000" font-size="5px" font-weight="bold" font-family="'Helvetica Neue', Helvetica, Arial-Unicode, Arial, Sans-serif">from the Noun Project</text></svg>